<?xml version="1.0" standalone="no"?>
<!DOCTYPE svg PUBLIC "-//W3C//DTD SVG 20010904//EN"
 "http://www.w3.org/TR/2001/REC-SVG-20010904/DTD/svg10.dtd">
<svg version="1.0" xmlns="http://www.w3.org/2000/svg"
 width="700.000000pt" height="700.000000pt" viewBox="0 0 700.000000 700.000000"
 preserveAspectRatio="xMidYMid meet">
<metadata>
Created by potrace 1.11, written by Peter Selinger 2001-2013
</metadata>
<g transform="translate(0.000000,700.000000) scale(0.100000,-0.100000)"
fill="#000000" stroke="none">
<path d="M1301 4075 c-113 -36 -169 -170 -115 -276 18 -37 76 -85 116 -97 18
-6 78 -13 133 -16 197 -13 423 -54 611 -111 l83 -25 -35 -47 c-50 -65 -90
-148 -120 -250 -35 -115 -39 -314 -11 -435 52 -220 163 -379 315 -451 59 -28
77 -32 153 -32 78 0 91 3 161 37 194 96 320 338 322 619 l1 117 38 5 c82 11
148 84 155 172 6 78 -12 121 -82 188 -319 308 -819 521 -1381 591 -196 24
-294 27 -344 11z"/>
<path d="M5530 4083 c-630 -47 -1205 -272 -1556 -610 -70 -67 -88 -110 -82
-188 7 -88 73 -161 155 -172 l38 -5 1 -117 c2 -281 128 -523 322 -619 70 -34
83 -37 161 -37 76 0 94 4 153 32 152 72 263 231 315 451 28 121 24 320 -11
435 -30 102 -70 185 -120 250 l-35 47 83 25 c188 57 414 98 611 111 55 3 115
10 133 16 40 12 98 60 116 97 55 108 -3 241 -119 277 -46 13 -67 14 -165 7z"/>
<path d="M1685 2018 c-38 -33 -43 -87 -14 -135 50 -83 176 -238 277 -341 351
-357 797 -587 1272 -653 122 -17 438 -17 560 0 476 67 921 296 1274 655 107
110 278 324 291 366 11 36 -4 88 -32 110 -46 36 -90 27 -189 -38 -557 -364
-1213 -553 -1776 -512 -84 6 -193 17 -243 26 -419 69 -855 242 -1229 486 -101
66 -146 75 -191 36z"/>
</g>
</svg>
